<svg preserveAspectRatio="none" width="1872" height="422" viewBox="0 0 1872 422" fill="none" xmlns="http://www.w3.org/2000/svg">
<path d="M147.885 0H233.242V422H147.885V255.04H85.3566V422H0V0H85.3566V172.875H147.885V0Z" fill="#242424"/>
<path d="M406.507 0H491.864V422H406.507V255.04H343.978V422H258.622V0H343.978V172.875H406.507V0Z" fill="#242424"/>
<path d="M730.635 157.757H643.79V90.053C643.79 80.4123 639.654 75.5919 631.383 75.5919H614.014C605.743 75.5919 601.608 80.4123 601.608 90.053V331.947C601.608 341.588 605.743 346.408 614.014 346.408H631.383C639.654 346.408 643.79 341.588 643.79 331.947V266.872H730.635V340.492C730.635 394.831 706.318 422 657.685 422H587.712C539.079 422 514.762 394.831 514.762 340.492V81.5078C514.762 27.1693 539.079 0 587.712 0H657.685C706.318 0 730.635 27.1693 730.635 81.5078V157.757Z" fill="#242424"/>
<path d="M819.047 0H966.436C1015.07 0 1039.39 27.1693 1039.39 81.5078V202.455C1039.39 256.793 1015.07 283.963 966.436 283.963H905.892V422H819.047V0ZM952.541 187.336V96.6262C952.541 86.9855 948.405 82.1651 940.134 82.1651H905.892V201.798H940.134C948.405 201.798 952.541 196.977 952.541 187.336Z" fill="#242424"/>
<path d="M1217.17 422L1207.24 358.897H1130.82L1120.4 422H1035.04L1116.92 0H1222.63L1304.51 422H1217.17ZM1144.22 277.389H1193.84L1169.53 125.548L1144.22 277.389Z" fill="#242424"/>
<path d="M1396.97 272.131V422H1310.12V0H1457.51C1506.14 0 1530.46 27.1693 1530.46 81.5078V190.623C1530.46 232.253 1516.23 257.889 1487.78 267.53L1546.34 422H1453.04L1402.42 272.131H1396.97ZM1431.21 82.1651H1396.97V193.91H1431.21C1439.48 193.91 1443.61 189.089 1443.61 179.449V96.6262C1443.61 86.9855 1439.48 82.1651 1431.21 82.1651Z" fill="#242424"/>
<path d="M1550.81 0H1637.66V422H1550.81V0Z" fill="#242424"/>
<path d="M1785.15 325.374V265.558C1785.15 255.917 1781.02 251.097 1772.75 251.097H1725.11C1700.63 251.097 1683.26 244.085 1673 230.062C1663.08 215.601 1658.11 195.005 1658.11 168.274V81.5078C1658.11 27.1693 1682.26 0 1730.57 0H1798.55C1846.86 0 1871.01 27.1693 1871.01 81.5078V132.121H1784.16V96.6262C1784.16 86.9855 1780.03 82.1651 1771.76 82.1651H1757.36C1749.09 82.1651 1744.96 86.9855 1744.96 96.6262V159.072C1744.96 168.712 1749.09 173.533 1757.36 173.533H1804.01C1828.5 173.533 1845.86 180.325 1856.12 193.91C1866.71 207.494 1872 227.433 1872 253.726V340.492C1872 394.831 1847.85 422 1799.55 422H1732.06C1683.42 422 1659.11 394.831 1659.11 340.492V289.879H1745.95V325.374C1745.95 335.015 1750.09 339.835 1758.36 339.835H1772.75C1781.02 339.835 1785.15 335.015 1785.15 325.374Z" fill="#242424"/>
</svg>
