<svg width="330" height="64" viewBox="0 0 330 64" fill="none" xmlns="http://www.w3.org/2000/svg">
<g clip-path="url(#clip0_914_995)">
<path d="M31.5558 0.37321C31.6767 -0.124405 32.3851 -0.124402 32.506 0.373213L37.0184 18.94C37.0965 19.2614 37.4652 19.414 37.7479 19.2419L54.08 9.30084C54.5178 9.03441 55.0187 9.53483 54.752 9.97213L44.8013 26.2885C44.6291 26.571 44.7818 26.9392 45.1035 27.0173L63.6882 31.5253C64.1863 31.6461 64.1863 32.3538 63.6882 32.4747L45.1035 36.9827C44.7818 37.0607 44.6291 37.429 44.8013 37.7115L54.752 54.0279C55.0187 54.4652 54.5178 54.9656 54.08 54.6992L37.7479 44.7581C37.4652 44.586 37.0965 44.7386 37.0184 45.06L32.506 63.6268C32.3851 64.1244 31.6767 64.1244 31.5558 63.6268L27.0434 45.06C26.9653 44.7386 26.5966 44.586 26.3139 44.7581L9.98176 54.6992C9.54403 54.9656 9.04313 54.4652 9.30982 54.0279L19.2605 37.7115C19.4327 37.429 19.28 37.0607 18.9583 36.9827L0.37357 32.4747C-0.124525 32.3538 -0.124522 31.6461 0.373573 31.5253L18.9583 27.0173C19.28 26.9392 19.4327 26.571 19.2605 26.2885L9.30982 9.97213C9.04313 9.53483 9.54403 9.03441 9.98176 9.30084L26.3139 19.2419C26.5966 19.414 26.9653 19.2614 27.0434 18.94L31.5558 0.37321Z" fill="#DF6C4F"/>
<path d="M99.9622 8.07903H110.579V55.921H99.9622V36.2125H90.3244V55.921H79.7077V8.07903H90.3244V28.3141H99.9622V8.07903Z" fill="#242424"/>
<path d="M134.598 8.07903H145.215V55.921H134.598V36.2125H124.96V55.921H114.344V8.07903H124.96V28.3141H134.598V8.07903Z" fill="#242424"/>
<path d="M177.291 24.8538H166.448V17.3315C166.448 16.0778 165.796 15.4509 164.491 15.4509H161.404C160.048 15.4509 159.371 16.0778 159.371 17.3315V46.6685C159.371 47.3706 159.521 47.8721 159.822 48.173C160.124 48.4237 160.651 48.5491 161.404 48.5491H164.491C165.193 48.5491 165.695 48.4237 165.997 48.173C166.298 47.8721 166.448 47.3706 166.448 46.6685V39.3719H177.291V47.6464C177.291 53.1628 174.103 55.921 167.728 55.921H158.091C151.766 55.921 148.603 53.1628 148.603 47.6464V16.3536C148.603 10.8372 151.766 8.07903 158.091 8.07903H167.728C174.103 8.07903 177.291 10.8372 177.291 16.3536V24.8538Z" fill="#242424"/>
<path d="M190.31 8.07903H210.038C216.362 8.07903 219.525 10.8372 219.525 16.3536V30.8717C219.525 36.4382 216.362 39.2214 210.038 39.2214H201.002V55.921H190.31V8.07903ZM208.758 29.4424V17.858C208.758 16.6043 208.105 15.9775 206.8 15.9775H201.002V31.323H206.8C208.105 31.323 208.758 30.6961 208.758 29.4424Z" fill="#242424"/>
<path d="M243.473 55.921L241.817 47.2703H230.899L229.242 55.921H218.625L229.468 8.07903H243.172L254.316 55.921H243.473ZM232.405 39.4471H240.235L236.32 19.2121L232.405 39.4471Z" fill="#242424"/>
<path d="M265.715 38.0178V55.921H255.023V8.07903H274.751C281.076 8.07903 284.238 10.8372 284.238 16.3536V29.7433C284.238 34.1564 282.23 36.8143 278.214 37.717L286.648 55.921H275.127L267.598 38.0178H265.715ZM265.715 15.9775V30.4203H271.513C272.216 30.4203 272.718 30.2949 273.019 30.0442C273.32 29.7433 273.471 29.2669 273.471 28.615V17.858C273.471 16.6043 272.818 15.9775 271.513 15.9775H265.715Z" fill="#242424"/>
<path d="M287.532 8.07903H298.224V55.921H287.532V8.07903Z" fill="#242424"/>
<path d="M318.876 46.1419V37.4913C318.876 36.8394 318.726 36.388 318.425 36.1373C318.124 35.8364 317.596 35.6859 316.844 35.6859H310.217C304.294 35.6859 301.333 32.8776 301.333 27.2609V16.3536C301.333 10.8372 304.495 8.07903 310.82 8.07903H320.006C326.331 8.07903 329.493 10.8372 329.493 16.3536V22.5971H318.726V17.858C318.726 16.6043 318.048 15.9775 316.693 15.9775H314.133C312.778 15.9775 312.1 16.6043 312.1 17.858V26.283C312.1 26.935 312.25 27.4114 312.552 27.7123C312.853 27.963 313.38 28.0884 314.133 28.0884H320.608C323.821 28.0884 326.13 28.7905 327.536 30.1946C328.941 31.5487 329.644 33.5797 329.644 36.2877V47.5712C329.644 53.1377 326.481 55.921 320.157 55.921H311.046C304.671 55.921 301.483 53.1377 301.483 47.5712V41.4029H312.25V46.1419C312.25 47.3957 312.928 48.0225 314.283 48.0225H316.844C318.199 48.0225 318.876 47.3957 318.876 46.1419Z" fill="#242424"/>
</g>
<defs>
<clipPath id="clip0_914_995">
<rect width="329.644" height="64" fill="white"/>
</clipPath>
</defs>
</svg>
