<svg preserveAspectRatio="none" width="1870" height="377" viewBox="0 0 1870 377" fill="none" xmlns="http://www.w3.org/2000/svg">
<path d="M61.0269 265.761V376.104H0V81.2384H112.599C148.699 81.2384 166.75 98.238 166.75 132.237V214.762C166.75 241.962 155.289 258.343 132.368 263.907L180.502 376.104H114.748L71.7711 265.761H61.0269ZM61.0269 129.919V218.935H94.119C98.1301 218.935 100.995 218.162 102.714 216.617C104.433 214.762 105.293 211.826 105.293 207.808V141.51C105.293 133.783 101.568 129.919 94.119 129.919H61.0269Z" fill="#242424"/>
<path d="M258.612 250.462V327.423H346.285V376.104H197.156V81.2384H342.847V129.919H258.612V201.781H330.383V250.462H258.612ZM346.285 0.104004L293.423 66.4024H245.289L284.398 0.104004H346.285Z" fill="#242424"/>
<path d="M463.688 315.833V262.516C463.688 258.498 462.829 255.716 461.11 254.171C459.391 252.316 456.382 251.389 452.085 251.389H414.265C380.457 251.389 363.553 234.08 363.553 199.463V132.237C363.553 98.238 381.603 81.2384 417.703 81.2384H470.135C506.235 81.2384 524.285 98.238 524.285 132.237V170.718H462.829V141.51C462.829 133.783 458.961 129.919 451.225 129.919H436.613C428.877 129.919 425.009 133.783 425.009 141.51V193.436C425.009 197.454 425.869 200.39 427.588 202.245C429.307 203.79 432.315 204.563 436.613 204.563H473.573C491.91 204.563 505.089 208.89 513.112 217.544C521.134 225.889 525.145 238.407 525.145 255.098V324.642C525.145 358.95 507.095 376.104 470.994 376.104H418.993C382.606 376.104 364.412 358.95 364.412 324.642V286.624H425.869V315.833C425.869 323.56 429.737 327.423 437.473 327.423H452.085C459.82 327.423 463.688 323.56 463.688 315.833Z" fill="#242424"/>
<path d="M555.823 81.2384H616.85V376.104H555.823V81.2384Z" fill="#242424"/>
<path d="M766.959 81.2384H823.259V376.104H768.249L708.511 199.463V376.104H652.641V81.2384H708.081L766.959 257.416V81.2384Z" fill="#242424"/>
<path d="M918.808 327.423H1006.48V376.104H857.352V81.2384H1003.04V129.919H918.808V201.781H990.579V250.462H918.808V327.423Z" fill="#242424"/>
<path d="M1123.88 315.833V262.516C1123.88 258.498 1123.02 255.716 1121.31 254.171C1119.59 252.316 1116.58 251.389 1112.28 251.389H1074.46C1040.65 251.389 1023.75 234.08 1023.75 199.463V132.237C1023.75 98.238 1041.8 81.2384 1077.9 81.2384H1130.33C1166.43 81.2384 1184.48 98.238 1184.48 132.237V170.718H1123.02V141.51C1123.02 133.783 1119.16 129.919 1111.42 129.919H1096.81C1089.07 129.919 1085.21 133.783 1085.21 141.51V193.436C1085.21 197.454 1086.06 200.39 1087.78 202.245C1089.5 203.79 1092.51 204.563 1096.81 204.563H1133.77C1152.11 204.563 1165.29 208.89 1173.31 217.544C1181.33 225.889 1185.34 238.407 1185.34 255.098V324.642C1185.34 358.95 1167.29 376.104 1131.19 376.104H1079.19C1042.8 376.104 1024.61 358.95 1024.61 324.642V286.624H1086.06V315.833C1086.06 323.56 1089.93 327.423 1097.67 327.423H1112.28C1120.02 327.423 1123.88 323.56 1123.88 315.833Z" fill="#242424"/>
<path d="M1402.84 81.2384H1463.44V376.104H1402.84V254.634H1347.83V376.104H1287.24V81.2384H1347.83V205.954H1402.84V81.2384Z" fill="#242424"/>
<path d="M1613.43 81.2384H1674.03V376.104H1613.43V254.634H1558.42V376.104H1497.82V81.2384H1558.42V205.954H1613.43V81.2384Z" fill="#242424"/>
<path d="M1870 184.627H1808.11V138.264C1808.11 130.537 1804.39 126.674 1796.94 126.674H1779.32C1771.58 126.674 1767.72 130.537 1767.72 138.264V319.078C1767.72 323.405 1768.58 326.496 1770.29 328.351C1772.01 329.896 1775.02 330.669 1779.32 330.669H1796.94C1800.95 330.669 1803.82 329.896 1805.53 328.351C1807.25 326.496 1808.11 323.405 1808.11 319.078V274.106H1870V325.105C1870 359.104 1851.81 376.104 1815.42 376.104H1760.41C1724.31 376.104 1706.26 359.104 1706.26 325.105V132.237C1706.26 98.238 1724.31 81.2384 1760.41 81.2384H1815.42C1851.81 81.2384 1870 98.238 1870 132.237V184.627Z" fill="#242424"/>
</svg>
