<svg preserveAspectRatio="none" width="1071" height="296" viewBox="0 0 1071 296" fill="none" xmlns="http://www.w3.org/2000/svg">
<path d="M124.816 0H190.24V295.104H124.816V173.536H65.424V295.104H0V0H65.424V124.816H124.816V0Z" fill="#242424"/>
<path d="M340.112 0H406.464V243.6C406.464 277.936 386.821 295.104 347.536 295.104H285.36C246.384 295.104 226.896 277.936 226.896 243.6V0H293.248V234.784C293.248 242.517 297.269 246.384 305.312 246.384H327.584C335.936 246.384 340.112 242.517 340.112 234.784V0Z" fill="#242424"/>
<path d="M444.331 0H510.219V295.104H444.331V0Z" fill="#242424"/>
<path d="M614.749 246.384H699.661V295.104H548.861V0H614.749V246.384Z" fill="#242424"/>
<path d="M782.761 246.384H877.417V295.104H716.409V0H873.705V48.72H782.761V120.64H860.249V169.36H782.761V246.384Z" fill="#242424"/>
<path d="M1004.17 234.784V181.424C1004.17 177.403 1003.24 174.619 1001.39 173.072C999.532 171.216 996.284 170.288 991.644 170.288H950.812C914.311 170.288 896.06 152.965 896.06 118.32V51.04C896.06 17.0133 915.548 0 954.524 0H1011.13C1050.11 0 1069.6 17.0133 1069.6 51.04V89.552H1003.24V60.32C1003.24 52.5867 999.068 48.72 990.716 48.72H974.94C966.588 48.72 962.412 52.5867 962.412 60.32V112.288C962.412 116.309 963.34 119.248 965.196 121.104C967.052 122.651 970.3 123.424 974.94 123.424H1014.84C1034.64 123.424 1048.87 127.755 1057.53 136.416C1066.19 144.768 1070.52 157.296 1070.52 174V243.6C1070.52 277.936 1051.04 295.104 1012.06 295.104H955.916C916.631 295.104 896.988 277.936 896.988 243.6V205.552H963.34V234.784C963.34 242.517 967.516 246.384 975.868 246.384H991.644C999.996 246.384 1004.17 242.517 1004.17 234.784Z" fill="#242424"/>
</svg>
