<svg preserveAspectRatio="none" width="1186" height="295" viewBox="0 0 1186 295" fill="none" xmlns="http://www.w3.org/2000/svg">
<path d="M61.0269 184.657V295H0V0.134521H112.599C148.699 0.134521 166.75 17.1341 166.75 51.1333V133.659C166.75 160.858 155.289 177.239 132.368 182.803L180.502 295H114.748L71.7711 184.657H61.0269ZM61.0269 48.8152V137.831H94.119C98.1301 137.831 100.995 137.058 102.714 135.513C104.433 133.659 105.293 130.722 105.293 126.704V60.4058C105.293 52.6787 101.568 48.8152 94.119 48.8152H61.0269Z" fill="#242424"/>
<path d="M258.612 169.358V246.319H346.285V295H197.156V0.134521H342.847V48.8152H258.612V120.677H330.383V169.358H258.612Z" fill="#242424"/>
<path d="M463.688 234.729V181.412C463.688 177.394 462.829 174.612 461.11 173.067C459.391 171.212 456.382 170.285 452.085 170.285H414.265C380.457 170.285 363.553 152.976 363.553 118.359V51.1333C363.553 17.1341 381.603 0.134521 417.703 0.134521H470.135C506.235 0.134521 524.285 17.1341 524.285 51.1333V89.6142H462.829V60.4058C462.829 52.6787 458.961 48.8152 451.225 48.8152H436.613C428.877 48.8152 425.009 52.6787 425.009 60.4058V112.332C425.009 116.35 425.869 119.286 427.588 121.141C429.307 122.686 432.315 123.459 436.613 123.459H473.573C491.91 123.459 505.089 127.786 513.112 136.44C521.134 144.786 525.145 157.303 525.145 173.994V243.538C525.145 277.846 507.095 295 470.994 295H418.993C382.606 295 364.412 277.846 364.412 243.538V205.52H425.869V234.729C425.869 242.456 429.737 246.319 437.473 246.319H452.085C459.82 246.319 463.688 242.456 463.688 234.729Z" fill="#242424"/>
<path d="M555.823 0.134521H616.85V295H555.823V0.134521Z" fill="#242424"/>
<path d="M766.959 0.134521H823.259V295H768.249L708.511 118.359V295H652.641V0.134521H708.081L766.959 176.312V0.134521Z" fill="#242424"/>
<path d="M918.808 246.319H1006.48V295H857.352V0.134521H1003.04V48.8152H918.808V120.677H990.579V169.358H918.808V246.319Z" fill="#242424"/>
<path d="M1123.88 234.729V181.412C1123.88 177.394 1123.02 174.612 1121.31 173.067C1119.59 171.212 1116.58 170.285 1112.28 170.285H1074.46C1040.65 170.285 1023.75 152.976 1023.75 118.359V51.1333C1023.75 17.1341 1041.8 0.134521 1077.9 0.134521H1130.33C1166.43 0.134521 1184.48 17.1341 1184.48 51.1333V89.6142H1123.02V60.4058C1123.02 52.6787 1119.16 48.8152 1111.42 48.8152H1096.81C1089.07 48.8152 1085.21 52.6787 1085.21 60.4058V112.332C1085.21 116.35 1086.06 119.286 1087.78 121.141C1089.5 122.686 1092.51 123.459 1096.81 123.459H1133.77C1152.11 123.459 1165.29 127.786 1173.31 136.44C1181.33 144.786 1185.34 157.303 1185.34 173.994V243.538C1185.34 277.846 1167.29 295 1131.19 295H1079.19C1042.8 295 1024.61 277.846 1024.61 243.538V205.52H1086.06V234.729C1086.06 242.456 1089.93 246.319 1097.67 246.319H1112.28C1120.02 246.319 1123.88 242.456 1123.88 234.729Z" fill="#242424"/>
</svg>
