<svg preserveAspectRatio="none" width="1870" height="239" viewBox="0 0 1870 239" fill="none" xmlns="http://www.w3.org/2000/svg">
<path d="M0 0H100.715C133.005 0 149.15 13.7788 149.15 41.3365V113.863C149.15 141.671 133.005 155.575 100.715 155.575H54.5858V239H0V0ZM94.1798 106.723V48.8522C94.1798 42.5891 90.8482 39.4576 84.1852 39.4576H54.5858V116.118H84.1852C90.8482 116.118 94.1798 112.986 94.1798 106.723Z" fill="#242424"/>
<path d="M226.052 149.563V239H171.467V0H272.181C304.472 0 320.617 13.7788 320.617 41.3365V108.226C320.617 130.273 310.366 143.55 289.864 148.06L332.918 239H274.103L235.663 149.563H226.052ZM226.052 39.4576V111.608H255.652C259.24 111.608 261.802 110.982 263.34 109.73C264.878 108.226 265.646 105.846 265.646 102.59V48.8522C265.646 42.5891 262.315 39.4576 255.652 39.4576H226.052Z" fill="#242424"/>
<path d="M395.096 0H446.606C478.896 0 495.041 13.7788 495.041 41.3365V197.288C495.041 225.096 478.896 239 446.606 239H395.096C362.549 239 346.276 225.096 346.276 197.288V41.3365C346.276 13.7788 362.549 0 395.096 0ZM440.071 190.148V48.8522C440.071 42.5891 436.74 39.4576 430.077 39.4576H411.625C404.706 39.4576 401.246 42.5891 401.246 48.8522V190.148C401.246 196.411 404.706 199.542 411.625 199.542H430.077C436.74 199.542 440.071 196.411 440.071 190.148Z" fill="#242424"/>
<path d="M526.851 0H628.719C661.266 0 677.539 13.7788 677.539 41.3365V197.288C677.539 225.096 661.266 239 628.719 239H526.851V0ZM622.568 192.778V46.2217C622.568 39.9586 619.109 36.827 612.189 36.827H581.821V202.173H612.189C619.109 202.173 622.568 199.041 622.568 192.778Z" fill="#242424"/>
<path d="M800.3 0H855.27V197.288C855.27 225.096 838.997 239 806.45 239H754.94C722.65 239 706.504 225.096 706.504 197.288V0H761.475V190.148C761.475 196.411 764.806 199.542 771.469 199.542H789.921C796.84 199.542 800.3 196.411 800.3 190.148V0Z" fill="#242424"/>
<path d="M886.641 0H941.227V239H886.641V0Z" fill="#242424"/>
<path d="M1102.4 0V39.4576H1057.43V239H1002.46V39.4576H957.865V0H1102.4Z" fill="#242424"/>
<path d="M1202.63 190.148V146.932C1202.63 143.676 1201.86 141.421 1200.33 140.168C1198.79 138.665 1196.1 137.914 1192.25 137.914H1158.43C1128.19 137.914 1113.07 123.884 1113.07 95.8255V41.3365C1113.07 13.7788 1129.21 0 1161.5 0H1208.4C1240.69 0 1256.83 13.7788 1256.83 41.3365V72.5267H1201.86V48.8522C1201.86 42.5891 1198.4 39.4576 1191.49 39.4576H1178.42C1171.5 39.4576 1168.04 42.5891 1168.04 48.8522V90.9403C1168.04 94.1971 1168.81 96.577 1170.34 98.0802C1171.88 99.3328 1174.57 99.9591 1178.42 99.9591H1211.47C1227.88 99.9591 1239.66 103.466 1246.84 110.481C1254.02 117.245 1257.6 127.392 1257.6 140.92V197.288C1257.6 225.096 1241.46 239 1209.17 239H1162.65C1130.11 239 1113.83 225.096 1113.83 197.288V166.473H1168.81V190.148C1168.81 196.411 1172.26 199.542 1179.18 199.542H1192.25C1199.17 199.542 1202.63 196.411 1202.63 190.148Z" fill="#242424"/>
<path d="M1452.15 0H1506.35V239H1452.15V140.544H1402.95V239H1348.74V0H1402.95V101.086H1452.15V0Z" fill="#242424"/>
<path d="M1640.51 0H1694.71V239H1640.51V140.544H1591.3V239H1537.1V0H1591.3V101.086H1640.51V0Z" fill="#242424"/>
<path d="M1870 83.8003H1814.65V46.2217C1814.65 39.9586 1811.31 36.827 1804.65 36.827H1788.89C1781.97 36.827 1778.51 39.9586 1778.51 46.2217V192.778C1778.51 196.286 1779.28 198.791 1780.82 200.294C1782.35 201.547 1785.05 202.173 1788.89 202.173H1804.65C1808.24 202.173 1810.8 201.547 1812.34 200.294C1813.88 198.791 1814.65 196.286 1814.65 192.778V156.327H1870V197.664C1870 225.221 1853.73 239 1821.18 239H1771.98C1739.69 239 1723.54 225.221 1723.54 197.664V41.3365C1723.54 13.7788 1739.69 0 1771.98 0H1821.18C1853.73 0 1870 13.7788 1870 41.3365V83.8003Z" fill="#242424"/>
</svg>
