<svg preserveAspectRatio="none" width="1552" height="295" viewBox="0 0 1552 295" fill="none" xmlns="http://www.w3.org/2000/svg">
<path d="M0 0H124.291C164.14 0 184.065 17.0073 184.065 51.022V140.542C184.065 174.866 164.14 192.028 124.291 192.028H67.364V295H0V0ZM116.227 131.73V60.2987C116.227 52.5681 112.115 48.7028 103.892 48.7028H67.364V143.325H103.892C112.115 143.325 116.227 139.46 116.227 131.73Z" fill="#242424"/>
<path d="M278.97 184.607V295H211.606V0H335.897C375.746 0 395.671 17.0073 395.671 51.022V133.585C395.671 160.797 383.02 177.186 357.719 182.752L410.852 295H338.269L290.83 184.607H278.97ZM278.97 48.7028V137.759H315.498C319.926 137.759 323.089 136.986 324.986 135.44C326.884 133.585 327.833 130.647 327.833 126.627V60.2987C327.833 52.5681 323.721 48.7028 315.498 48.7028H278.97Z" fill="#242424"/>
<path d="M487.585 0H551.154C591.003 0 610.927 17.0073 610.927 51.022V243.514C610.927 277.838 591.003 295 551.154 295H487.585C447.419 295 427.337 277.838 427.337 243.514V51.022C427.337 17.0073 447.419 0 487.585 0ZM543.089 234.701V60.2987C543.089 52.5681 538.978 48.7028 530.755 48.7028H507.984C499.445 48.7028 495.175 52.5681 495.175 60.2987V234.701C495.175 242.432 499.445 246.297 507.984 246.297H530.755C538.978 246.297 543.089 242.432 543.089 234.701Z" fill="#242424"/>
<path d="M650.184 0H775.898C816.063 0 836.146 17.0073 836.146 51.022V243.514C836.146 277.838 816.063 295 775.898 295H650.184V0ZM768.308 237.948V57.0519C768.308 49.3213 764.038 45.456 755.499 45.456H718.022V249.544H755.499C764.038 249.544 768.308 245.679 768.308 237.948Z" fill="#242424"/>
<path d="M987.645 0H1055.48V243.514C1055.48 277.838 1035.4 295 995.235 295H931.666C891.817 295 871.893 277.838 871.893 243.514V0H939.731V234.701C939.731 242.432 943.842 246.297 952.065 246.297H974.836C983.375 246.297 987.645 242.432 987.645 234.701V0Z" fill="#242424"/>
<path d="M1094.2 0H1161.56V295H1094.2V0Z" fill="#242424"/>
<path d="M1360.47 0V48.7028H1304.96V295H1237.12V48.7028H1182.09V0H1360.47Z" fill="#242424"/>
<path d="M1484.16 234.701V181.36C1484.16 177.34 1483.21 174.557 1481.32 173.011C1479.42 171.156 1476.1 170.228 1471.35 170.228H1429.61C1392.29 170.228 1373.63 152.911 1373.63 118.278V51.022C1373.63 17.0073 1393.55 0 1433.4 0H1491.28C1531.13 0 1551.05 17.0073 1551.05 51.022V89.5204H1483.21V60.2987C1483.21 52.5681 1478.94 48.7028 1470.4 48.7028H1454.27C1445.74 48.7028 1441.47 52.5681 1441.47 60.2987V112.248C1441.47 116.268 1442.41 119.206 1444.31 121.061C1446.21 122.607 1449.53 123.381 1454.27 123.381H1495.07C1515.31 123.381 1529.86 127.71 1538.72 136.368C1547.57 144.717 1552 157.241 1552 173.939V243.514C1552 277.838 1532.08 295 1492.23 295H1434.82C1394.66 295 1374.58 277.838 1374.58 243.514V205.48H1442.41V234.701C1442.41 242.432 1446.68 246.297 1455.22 246.297H1471.35C1479.89 246.297 1484.16 242.432 1484.16 234.701Z" fill="#242424"/>
</svg>
