<svg preserveAspectRatio="none" width="1081" height="295" viewBox="0 0 1081 295" fill="none" xmlns="http://www.w3.org/2000/svg">
<path d="M152.634 0H225.977L156.598 295H69.8746L0 0H73.8391L112.989 218.931L152.634 0Z" fill="#242424"/>
<path d="M390.381 295L379.478 241.659H307.621L296.719 295H226.845L298.206 0H388.398L461.742 295H390.381ZM317.533 193.42H369.071L343.302 68.6478L317.533 193.42Z" fill="#242424"/>
<path d="M481.266 0H611.104C652.732 0 673.545 17.0073 673.545 51.022V140.542C673.545 174.866 652.732 192.028 611.104 192.028H551.636V295H481.266V0ZM602.68 131.73V60.2987C602.68 52.5681 598.385 48.7028 589.795 48.7028H551.636V143.325H589.795C598.385 143.325 602.68 139.46 602.68 131.73Z" fill="#242424"/>
<path d="M773.181 246.297H874.276V295H702.315V0H870.311V48.7028H773.181V120.597H855.94V169.3H773.181V246.297Z" fill="#242424"/>
<path d="M1009.65 234.701V181.36C1009.65 177.34 1008.66 174.557 1006.68 173.011C1004.7 171.156 1001.23 170.228 996.274 170.228H952.664C913.68 170.228 894.188 152.911 894.188 118.278V51.022C894.188 17.0073 915.001 0 956.629 0H1017.09C1058.71 0 1079.53 17.0073 1079.53 51.022V89.5204H1008.66V60.2987C1008.66 52.5681 1004.2 48.7028 995.283 48.7028H978.433C969.513 48.7028 965.053 52.5681 965.053 60.2987V112.248C965.053 116.268 966.044 119.206 968.027 121.061C970.009 122.607 973.478 123.381 978.433 123.381H1021.05C1042.2 123.381 1057.39 127.71 1066.64 136.368C1075.89 144.717 1080.52 157.241 1080.52 173.939V243.514C1080.52 277.838 1059.71 295 1018.08 295H958.115C916.158 295 895.179 277.838 895.179 243.514V205.48H966.044V234.701C966.044 242.432 970.504 246.297 979.425 246.297H996.274C1005.19 246.297 1009.65 242.432 1009.65 234.701Z" fill="#242424"/>
</svg>
