<svg preserveAspectRatio="none" width="1870" height="296" viewBox="0 0 1870 296" fill="none" xmlns="http://www.w3.org/2000/svg">
<path d="M152.634 0.104004H225.977L156.598 295.104H69.8746L0 0.104004H73.8391L112.989 219.035L152.634 0.104004Z" fill="#242424"/>
<path d="M390.381 295.104L379.478 241.763H307.621L296.719 295.104H226.845L298.206 0.104004H388.398L461.742 295.104H390.381ZM317.533 193.524H369.071L343.302 68.7518L317.533 193.524Z" fill="#242424"/>
<path d="M481.266 0.104004H611.104C652.732 0.104004 673.545 17.1113 673.545 51.126V140.646C673.545 174.97 652.732 192.132 611.104 192.132H551.636V295.104H481.266V0.104004ZM602.68 131.834V60.4027C602.68 52.6721 598.385 48.8068 589.795 48.8068H551.636V143.429H589.795C598.385 143.429 602.68 139.564 602.68 131.834Z" fill="#242424"/>
<path d="M773.181 246.401H874.276V295.104H702.315V0.104004H870.311V48.8068H773.181V120.701H855.94V169.404H773.181V246.401Z" fill="#242424"/>
<path d="M1009.65 234.805V181.464C1009.65 177.444 1008.66 174.661 1006.68 173.115C1004.7 171.26 1001.23 170.332 996.274 170.332H952.664C913.68 170.332 894.188 153.015 894.188 118.382V51.126C894.188 17.1113 915.001 0.104004 956.629 0.104004H1017.09C1058.71 0.104004 1079.53 17.1113 1079.53 51.126V89.6245H1008.66V60.4027C1008.66 52.6721 1004.2 48.8068 995.283 48.8068H978.433C969.513 48.8068 965.053 52.6721 965.053 60.4027V112.352C965.053 116.372 966.044 119.31 968.027 121.165C970.009 122.711 973.478 123.485 978.433 123.485H1021.05C1042.2 123.485 1057.39 127.814 1066.64 136.472C1075.89 144.821 1080.52 157.345 1080.52 174.043V243.618C1080.52 277.942 1059.71 295.104 1018.08 295.104H958.115C916.158 295.104 895.179 277.942 895.179 243.618V205.584H966.044V234.805C966.044 242.536 970.504 246.401 979.425 246.401H996.274C1005.19 246.401 1009.65 242.536 1009.65 234.805Z" fill="#242424"/>
<path d="M1331.32 0.104004H1401.2V295.104H1331.32V173.579H1267.89V295.104H1198.01V0.104004H1267.89V124.876H1331.32V0.104004Z" fill="#242424"/>
<path d="M1574.15 0.104004H1644.02V295.104H1574.15V173.579H1510.72V295.104H1440.84V0.104004H1510.72V124.876H1574.15V0.104004Z" fill="#242424"/>
<path d="M1870 103.54H1798.64V57.1559C1798.64 49.4253 1794.34 45.56 1785.75 45.56H1765.44C1756.52 45.56 1752.06 49.4253 1752.06 57.1559V238.052C1752.06 242.381 1753.05 245.474 1755.03 247.329C1757.01 248.875 1760.48 249.648 1765.44 249.648H1785.75C1790.38 249.648 1793.68 248.875 1795.67 247.329C1797.65 245.474 1798.64 242.381 1798.64 238.052V193.06H1870V244.082C1870 278.097 1849.02 295.104 1807.06 295.104H1743.63C1702 295.104 1681.19 278.097 1681.19 244.082V51.126C1681.19 17.1113 1702 0.104004 1743.63 0.104004H1807.06C1849.02 0.104004 1870 17.1113 1870 51.126V103.54Z" fill="#242424"/>
</svg>
