<svg preserveAspectRatio="none" width="1131" height="296" viewBox="0 0 1131 296" fill="none" xmlns="http://www.w3.org/2000/svg">
<path d="M158.688 48.72H66.352V129.92H143.84V175.856H66.352V295.104H0V0H158.688V48.72Z" fill="#242424"/>
<path d="M246.576 246.384H331.488V295.104H180.688V0H246.576V246.384Z" fill="#242424"/>
<path d="M414.588 246.384H509.244V295.104H348.236V0H505.532V48.72H414.588V120.64H492.076V169.36H414.588V246.384Z" fill="#242424"/>
<path d="M646.207 0H712.559V243.6C712.559 277.936 692.916 295.104 653.631 295.104H591.455C552.479 295.104 532.991 277.936 532.991 243.6V0H599.343V234.784C599.343 242.517 603.364 246.384 611.407 246.384H633.679C642.031 246.384 646.207 242.517 646.207 234.784V0Z" fill="#242424"/>
<path d="M814.922 184.672V295.104H749.034V0H870.602C909.578 0 929.066 17.0133 929.066 51.04V133.632C929.066 160.853 916.692 177.248 891.946 182.816L943.914 295.104H872.922L826.522 184.672H814.922ZM814.922 48.72V137.808H850.65C854.98 137.808 858.074 137.035 859.93 135.488C861.786 133.632 862.714 130.693 862.714 126.672V60.32C862.714 52.5867 858.692 48.72 850.65 48.72H814.922Z" fill="#242424"/>
<path d="M1064.44 234.784V181.424C1064.44 177.403 1063.51 174.619 1061.65 173.072C1059.8 171.216 1056.55 170.288 1051.91 170.288H1011.08C974.576 170.288 956.326 152.965 956.326 118.32V51.04C956.326 17.0133 975.814 0 1014.79 0H1071.4C1110.37 0 1129.86 17.0133 1129.86 51.04V89.552H1063.51V60.32C1063.51 52.5867 1059.33 48.72 1050.98 48.72H1035.21C1026.85 48.72 1022.68 52.5867 1022.68 60.32V112.288C1022.68 116.309 1023.61 119.248 1025.46 121.104C1027.32 122.651 1030.57 123.424 1035.21 123.424H1075.11C1094.91 123.424 1109.14 127.755 1117.8 136.416C1126.46 144.768 1130.79 157.296 1130.79 174V243.6C1130.79 277.936 1111.3 295.104 1072.33 295.104H1016.18C976.896 295.104 957.254 277.936 957.254 243.6V205.552H1023.61V234.784C1023.61 242.517 1027.78 246.384 1036.13 246.384H1051.91C1060.26 246.384 1064.44 242.517 1064.44 234.784Z" fill="#242424"/>
</svg>
